# This file uses centimeters as units for non-parametric coordinates.

mtllib 13. lighting.mtl
g default
v -0.113792 237.509293 240.631561
v -0.113792 237.509293 231.053497
v -3.582801 240.909348 253.101562
v -2.999187 239.088791 251.472107
v -2.246085 237.915085 249.372681
v -1.403541 237.509445 247.020676
v -2.536462 237.509445 246.377136
v -4.123532 237.914993 248.306549
v -5.541112 239.088669 250.029419
v -6.640953 240.909073 251.366730
v -3.386765 237.509293 245.389404
v -5.531311 237.915085 246.669250
v -7.447556 239.088791 247.812073
v -8.934158 240.909348 248.699219
v -3.853983 237.509293 244.168274
v -6.305242 237.914993 244.648346
v -8.494712 239.088760 245.079315
v -10.193276 240.909286 245.412170
v -3.923821 237.509293 240.631561
v -6.385698 237.915359 240.631561
v -8.586603 239.090042 240.631561
v -10.292928 240.909348 240.631561
v 8.706983 240.909348 248.698608
v 7.219973 239.088760 247.812073
v 5.304135 237.915085 246.668732
v 3.159182 237.509293 245.388275
v 2.308879 237.509293 246.377136
v 3.895948 237.914993 248.305328
v 5.313529 239.088669 250.029419
v 6.413369 240.909012 251.364899
v 1.175141 237.509293 247.020676
v 2.018093 237.914993 249.372681
v 2.771195 239.088699 251.472107
v 3.355217 240.909225 253.101562
v -0.113792 237.509445 247.244598
v -0.113792 237.915085 249.743225
v -0.113792 239.088913 251.973755
v -0.113792 240.909348 253.703766
v 10.065345 240.909348 240.631561
v 8.359020 239.090042 240.631561
v 6.158114 237.915359 240.631561
v 3.696237 237.509293 240.631561
v 3.626808 237.509293 244.168274
v 6.077658 237.914993 244.648346
v 8.267128 239.088699 245.079315
v 9.965693 240.909225 245.412170
v 9.518079 240.909348 231.053497
v 7.757845 239.090103 231.053497
v 5.488327 237.915359 231.053497
v 2.949261 237.509293 231.053497
v -3.177253 237.509293 231.053497
v -5.715910 237.915359 231.053497
v -7.985837 239.090103 231.053497
v -9.745663 240.909348 231.053497
v -0.113792 237.509293 227.738358
v -0.113792 237.915359 225.279755
v -0.113792 239.090134 223.080383
v -0.113792 240.909348 221.375488
v -4.120673 243.965439 254.010864
v -7.655027 243.965439 252.005493
v -10.304771 243.965439 248.921906
v -11.759109 243.965439 245.125458
v -11.861211 243.965439 240.631561
v 10.077188 243.965439 248.921906
v 7.427444 243.965439 252.004883
v 3.893089 243.965439 254.010864
v -0.113792 243.965439 254.706482
v 11.634036 243.965439 240.631561
v 11.531934 243.965439 245.125458
v 11.222770 243.965439 231.053497
v -11.450354 243.965439 231.053497
v -0.113792 243.965439 220.412964
v -1.819300 237.509293 227.738358
v -3.035127 237.509293 228.917023
v -5.268297 237.910751 226.266251
v -3.890331 237.911179 225.269638
v -7.243761 239.066513 224.127426
v -5.907862 239.067734 223.084564
v -7.478187 240.909348 221.375488
v -8.787131 240.909348 222.462036
v 1.591716 237.509293 227.738358
v 2.807544 237.509293 228.917023
v 3.662339 237.911179 225.269638
v 5.040713 237.910751 226.266251
v 5.680278 239.067734 223.084564
v 7.016178 239.066513 224.127426
v 8.559547 240.909348 222.462036
v 7.250603 240.909348 221.375488
v -8.948860 243.965439 220.412964
v -10.264748 243.965439 221.505447
v 10.037573 243.965439 221.505447
v 8.721685 243.965439 220.412964
v -0.113792 237.509293 228.917023
vt 0.070806 0.145891
vt 0.067111 0.156592
vt 0.058651 0.151982
vt 0.065655 0.143066
vt 0.063449 0.167276
vt 0.051745 0.160940
vt 0.059893 0.178037
vt 0.044908 0.170005
vt 0.091543 0.138714
vt 0.101158 0.144863
vt 0.094627 0.151997
vt 0.087625 0.143082
vt 0.110584 0.151176
vt 0.101489 0.160989
vt 0.119974 0.157550
vt 0.108367 0.169988
vt 0.094511 0.117488
vt 0.106232 0.117810
vt 0.105023 0.135953
vt 0.093774 0.133293
vt 0.117939 0.118296
vt 0.116136 0.138887
vt 0.129625 0.118879
vt 0.127052 0.142040
vt 0.061739 0.138699
vt 0.076647 0.117270
vt 0.058780 0.117483
vt 0.059515 0.133285
vt 0.082469 0.145903
vt 0.076639 0.146883
vt 0.076642 0.074061
vt 0.091047 0.074024
vt 0.062236 0.074026
vt 0.063240 0.064447
vt 0.076640 0.064343
vt 0.090041 0.064444
vt 0.054089 0.191668
vt 0.034215 0.180604
vt 0.019144 0.163788
vt 0.033265 0.157577
vt 0.010332 0.143324
vt 0.026225 0.142033
vt 0.007812 0.119596
vt 0.023661 0.118873
vt 0.134099 0.163784
vt 0.119054 0.180589
vt 0.099187 0.191660
vt 0.093383 0.178029
vt 0.076642 0.195798
vt 0.076646 0.180637
vt 0.145473 0.119603
vt 0.142943 0.143338
vt 0.143859 0.070946
vt 0.127302 0.072647
vt 0.009424 0.070961
vt 0.025981 0.072657
vt 0.042746 0.151105
vt 0.052129 0.144845
vt 0.037149 0.138868
vt 0.048257 0.135928
vt 0.035349 0.118287
vt 0.047057 0.117801
vt 0.037965 0.073466
vt 0.050081 0.073878
vt 0.089753 0.167284
vt 0.086157 0.156619
vt 0.076592 0.169416
vt 0.076628 0.158144
vt 0.103203 0.073875
vt 0.115318 0.073460
vt 0.068948 0.059032
vt 0.053556 0.052415
vt 0.059839 0.047859
vt 0.044388 0.041948
vt 0.050356 0.037420
vt 0.035411 0.032096
vt 0.041454 0.027485
vt 0.022460 0.022674
vt 0.029957 0.015648
vt 0.084331 0.059030
vt 0.093432 0.047854
vt 0.099719 0.052409
vt 0.102911 0.037411
vt 0.108881 0.041937
vt 0.111806 0.027471
vt 0.117853 0.032079
vt 0.123296 0.015628
vt 0.130798 0.022649
vt 0.076623 0.007812
vt 0.076629 0.023288
vt 0.076632 0.035281
vt 0.076636 0.047209
vt 0.076639 0.058904
vn -0.027094 -0.996766 0.075657
vn -0.106910 -0.948469 0.298291
vn -0.201285 -0.948486 0.244661
vn -0.068033 -0.994245 0.082752
vn -0.106910 -0.948469 0.298291
vn -0.203351 -0.797809 0.567582
vn -0.382976 -0.797891 0.465509
vn -0.201285 -0.948486 0.244661
vn -0.203351 -0.797809 0.567582
vn -0.288226 -0.517795 0.805490
vn -0.538245 -0.530151 0.655158
vn -0.382976 -0.797891 0.465509
vn 0.069032 -0.996764 0.041188
vn 0.272067 -0.948485 0.162346
vn 0.201316 -0.948487 0.244630
vn 0.068095 -0.994241 0.082752
vn 0.272067 -0.948485 0.162346
vn 0.517647 -0.797878 0.308920
vn 0.383007 -0.797859 0.465540
vn 0.201316 -0.948487 0.244630
vn 0.517647 -0.797878 0.308920
vn 0.717705 -0.548326 0.429229
vn 0.538299 -0.530111 0.655146
vn 0.383007 -0.797859 0.465540
vn 0.081002 -0.996712 -0.002156
vn 0.318945 -0.947742 -0.007625
vn 0.310943 -0.948487 0.060720
vn 0.105190 -0.994240 0.020532
vn 0.318945 -0.947742 -0.007625
vn 0.605423 -0.795804 -0.012594
vn 0.591549 -0.797930 0.115660
vn 0.310943 -0.948487 0.060720
vn 0.605423 -0.795804 -0.012594
vn 0.813946 -0.580787 -0.013375
vn 0.806203 -0.569855 0.159066
vn 0.591549 -0.797930 0.115660
vn -0.069032 -0.996763 0.041219
vn 0.000000 -1.000000 0.000000
vn -0.027094 -0.996766 0.075657
vn -0.068033 -0.994245 0.082752
vn -0.081002 -0.996712 -0.002156
vn 0.000000 -1.000000 0.000000
vn -0.069032 -0.996763 0.041219
vn -0.105190 -0.994241 0.020500
vn 0.027094 -0.996766 0.075657
vn 0.000000 -1.000000 0.000000
vn 0.069032 -0.996764 0.041188
vn 0.068095 -0.994241 0.082752
vn -0.027094 -0.996766 0.075657
vn 0.000000 -1.000000 0.000000
vn 0.027094 -0.996766 0.075657
vn -0.000031 -0.994245 0.107128
vn 0.069032 -0.996764 0.041188
vn 0.000000 -1.000000 0.000000
vn 0.081002 -0.996712 -0.002156
vn 0.105190 -0.994240 0.020532
vn 0.000000 -1.000000 0.000000
vn 0.000000 -1.000000 0.000000
vn 0.080281 -0.996753 -0.006219
vn 0.081002 -0.996712 -0.002156
vn -0.081002 -0.996712 -0.002156
vn -0.080281 -0.996753 -0.006219
vn 0.000000 -1.000000 0.000000
vn 0.000000 -1.000000 0.000000
vn -0.080281 -0.996753 -0.006219
vn -0.059252 -0.997900 -0.026157
vn 0.000000 -1.000000 0.000000
vn 0.000000 -1.000000 0.000000
vn 0.000000 -1.000000 0.000000
vn 0.000000 -1.000000 0.000000
vn 0.059252 -0.997900 -0.026157
vn 0.080281 -0.996753 -0.006219
vn -0.318817 -0.321379 0.891668
vn -0.594606 -0.348664 0.724484
vn -0.538245 -0.530151 0.655158
vn -0.288226 -0.517795 0.805490
vn -0.594606 -0.348664 0.724484
vn -0.790334 -0.388979 0.473357
vn -0.717740 -0.548328 0.429169
vn -0.538245 -0.530151 0.655158
vn -0.790334 -0.388979 0.473357
vn -0.882545 -0.436350 0.175253
vn -0.806229 -0.569819 0.159064
vn -0.717740 -0.548328 0.429169
vn -0.882545 -0.436350 0.175253
vn -0.885859 -0.463789 -0.012344
vn -0.813986 -0.580731 -0.013375
vn -0.806229 -0.569819 0.159064
vn 0.790245 -0.389044 0.473453
vn 0.594607 -0.348789 0.724423
vn 0.538299 -0.530111 0.655146
vn 0.717705 -0.548326 0.429229
vn 0.594607 -0.348789 0.724423
vn 0.318909 -0.321472 0.891602
vn 0.288348 -0.517789 0.805450
vn 0.538299 -0.530111 0.655146
vn 0.318909 -0.321472 0.891602
vn 0.000000 -0.311724 0.950173
vn 0.000000 -0.513415 0.858140
vn 0.288348 -0.517789 0.805450
vn 0.000000 -0.311724 0.950173
vn -0.318817 -0.321379 0.891668
vn -0.288226 -0.517795 0.805490
vn 0.000000 -0.513415 0.858140
vn 0.885827 -0.463851 -0.012344
vn 0.882514 -0.436413 0.175253
vn 0.806203 -0.569855 0.159066
vn 0.813946 -0.580787 -0.013375
vn 0.882514 -0.436413 0.175253
vn 0.790245 -0.389044 0.473453
vn 0.717705 -0.548326 0.429229
vn 0.806203 -0.569855 0.159066
vn 0.878471 -0.472064 -0.073781
vn 0.885827 -0.463851 -0.012344
vn 0.813946 -0.580787 -0.013375
vn 0.807904 -0.585396 -0.067846
vn -0.885859 -0.463789 -0.012344
vn -0.878497 -0.472015 -0.073784
vn -0.807928 -0.585359 -0.067877
vn -0.813986 -0.580731 -0.013375
vn -0.382976 -0.797891 0.465509
vn -0.538245 -0.530151 0.655158
vn -0.717740 -0.548328 0.429169
vn -0.517662 -0.797884 0.308879
vn -0.068033 -0.994245 0.082752
vn -0.201285 -0.948486 0.244661
vn -0.272067 -0.948485 0.162346
vn -0.069032 -0.996763 0.041219
vn -0.201285 -0.948486 0.244661
vn -0.382976 -0.797891 0.465509
vn -0.517662 -0.797884 0.308879
vn -0.272067 -0.948485 0.162346
vn -0.517662 -0.797884 0.308879
vn -0.717740 -0.548328 0.429169
vn -0.806229 -0.569819 0.159064
vn -0.591547 -0.797927 0.115691
vn -0.069032 -0.996763 0.041219
vn -0.272067 -0.948485 0.162346
vn -0.310943 -0.948487 0.060720
vn -0.105190 -0.994241 0.020500
vn -0.272067 -0.948485 0.162346
vn -0.517662 -0.797884 0.308879
vn -0.591547 -0.797927 0.115691
vn -0.310943 -0.948487 0.060720
vn -0.591547 -0.797927 0.115691
vn -0.806229 -0.569819 0.159064
vn -0.813986 -0.580731 -0.013375
vn -0.605443 -0.795789 -0.012594
vn -0.105190 -0.994241 0.020500
vn -0.310943 -0.948487 0.060720
vn -0.318945 -0.947743 -0.007594
vn -0.081002 -0.996712 -0.002156
vn -0.310943 -0.948487 0.060720
vn -0.591547 -0.797927 0.115691
vn -0.605443 -0.795789 -0.012594
vn -0.318945 -0.947743 -0.007594
vn -0.605443 -0.795789 -0.012594
vn -0.813986 -0.580731 -0.013375
vn -0.807928 -0.585359 -0.067877
vn -0.601583 -0.797246 -0.049970
vn -0.081002 -0.996712 -0.002156
vn -0.318945 -0.947743 -0.007594
vn -0.316191 -0.948354 -0.025469
vn -0.080281 -0.996753 -0.006219
vn -0.318945 -0.947743 -0.007594
vn -0.605443 -0.795789 -0.012594
vn -0.601583 -0.797246 -0.049970
vn -0.316191 -0.948354 -0.025469
vn 0.383007 -0.797859 0.465540
vn 0.538299 -0.530111 0.655146
vn 0.288348 -0.517789 0.805450
vn 0.203414 -0.797813 0.567554
vn 0.068095 -0.994241 0.082752
vn 0.201316 -0.948487 0.244630
vn 0.106908 -0.948481 0.298254
vn 0.027094 -0.996766 0.075657
vn 0.201316 -0.948487 0.244630
vn 0.383007 -0.797859 0.465540
vn 0.203414 -0.797813 0.567554
vn 0.106908 -0.948481 0.298254
vn 0.203414 -0.797813 0.567554
vn 0.288348 -0.517789 0.805450
vn 0.000000 -0.513415 0.858140
vn 0.000000 -0.797774 0.602956
vn 0.027094 -0.996766 0.075657
vn 0.106908 -0.948481 0.298254
vn 0.000000 -0.948464 0.316884
vn -0.000031 -0.994245 0.107128
vn 0.106908 -0.948481 0.298254
vn 0.203414 -0.797813 0.567554
vn 0.000000 -0.797774 0.602956
vn 0.000000 -0.948464 0.316884
vn -0.288226 -0.517795 0.805490
vn -0.203351 -0.797809 0.567582
vn 0.000000 -0.797774 0.602956
vn 0.000000 -0.513415 0.858140
vn -0.203351 -0.797809 0.567582
vn -0.106910 -0.948469 0.298291
vn 0.000000 -0.948464 0.316884
vn 0.000000 -0.797774 0.602956
vn -0.106910 -0.948469 0.298291
vn -0.027094 -0.996766 0.075657
vn -0.000031 -0.994245 0.107128
vn 0.000000 -0.948464 0.316884
vn 0.318945 -0.947742 -0.007625
vn 0.081002 -0.996712 -0.002156
vn 0.080281 -0.996753 -0.006219
vn 0.316191 -0.948354 -0.025469
vn 0.813946 -0.580787 -0.013375
vn 0.605423 -0.795804 -0.012594
vn 0.601568 -0.797257 -0.049969
vn 0.807904 -0.585396 -0.067846
vn 0.605423 -0.795804 -0.012594
vn 0.318945 -0.947742 -0.007625
vn 0.316191 -0.948354 -0.025469
vn 0.601568 -0.797257 -0.049969
vn 0.717705 -0.548326 0.429229
vn 0.517647 -0.797878 0.308920
vn 0.591549 -0.797930 0.115660
vn 0.806203 -0.569855 0.159066
vn 0.517647 -0.797878 0.308920
vn 0.272067 -0.948485 0.162346
vn 0.310943 -0.948487 0.060720
vn 0.591549 -0.797930 0.115660
vn 0.272067 -0.948485 0.162346
vn 0.069032 -0.996764 0.041188
vn 0.105190 -0.994240 0.020532
vn 0.310943 -0.948487 0.060720
vn -0.025219 -0.996080 -0.084783
vn -0.059252 -0.997900 -0.026157
vn -0.234070 -0.965656 -0.112785
vn -0.074408 -0.963122 -0.258570
vn -0.074408 -0.963122 -0.258570
vn -0.234070 -0.965656 -0.112785
vn -0.467191 -0.852319 -0.235127
vn -0.157223 -0.844523 -0.511920
vn -0.157223 -0.844523 -0.511920
vn -0.467191 -0.852319 -0.235127
vn -0.677584 -0.642927 -0.357105
vn -0.253884 -0.598489 -0.759838
vn -0.253884 -0.598489 -0.759838
vn -0.677584 -0.642927 -0.357105
vn -0.559762 -0.481698 -0.674265
vn -0.559762 -0.481698 -0.674265
vn 0.059252 -0.997900 -0.026157
vn 0.025219 -0.996080 -0.084783
vn 0.074408 -0.963122 -0.258570
vn 0.234070 -0.965656 -0.112785
vn 0.234070 -0.965656 -0.112785
vn 0.074408 -0.963122 -0.258570
vn 0.157223 -0.844523 -0.511920
vn 0.467167 -0.852332 -0.235130
vn 0.467167 -0.852332 -0.235130
vn 0.157223 -0.844523 -0.511920
vn 0.330947 -0.675676 -0.658738
vn 0.485517 -0.642742 -0.592584
vn 0.485517 -0.642742 -0.592584
vn 0.330947 -0.675676 -0.658738
vn 0.559736 -0.481765 -0.674239
vn 0.559736 -0.481765 -0.674239
vn -0.878497 -0.472015 -0.073784
vn -0.875497 -0.472015 -0.103472
vn -0.677584 -0.642927 -0.357105
vn -0.807928 -0.585359 -0.067877
vn -0.253884 -0.598489 -0.759838
vn 0.000000 -0.300378 -0.953820
vn 0.000000 -0.300378 -0.953820
vn 0.000000 -0.503511 -0.863989
vn 0.000000 -0.300378 -0.953820
vn 0.000000 -0.300378 -0.953820
vn 0.000000 -0.300378 -0.953820
vn 0.000000 -0.503511 -0.863989
vn 0.806019 -0.584764 -0.091565
vn 0.875474 -0.472065 -0.103438
vn 0.878471 -0.472064 -0.073781
vn 0.807904 -0.585396 -0.067846
vn -0.601583 -0.797246 -0.049970
vn -0.807928 -0.585359 -0.067877
vn -0.677584 -0.642927 -0.357105
vn -0.467191 -0.852319 -0.235127
vn -0.080281 -0.996753 -0.006219
vn -0.316191 -0.948354 -0.025469
vn -0.234070 -0.965656 -0.112785
vn -0.059252 -0.997900 -0.026157
vn -0.316191 -0.948354 -0.025469
vn -0.601583 -0.797246 -0.049970
vn -0.467191 -0.852319 -0.235127
vn -0.234070 -0.965656 -0.112785
vn -0.157223 -0.844523 -0.511920
vn -0.253884 -0.598489 -0.759838
vn 0.000000 -0.503511 -0.863989
vn 0.000000 -0.792921 -0.609324
vn -0.025219 -0.996080 -0.084783
vn -0.074408 -0.963122 -0.258570
vn 0.000000 -0.947204 -0.320631
vn 0.000000 -0.996683 -0.081377
vn -0.074408 -0.963122 -0.258570
vn -0.157223 -0.844523 -0.511920
vn 0.000000 -0.792921 -0.609324
vn 0.000000 -0.947204 -0.320631
vn 0.000000 -0.792921 -0.609324
vn 0.000000 -0.503511 -0.863989
vn 0.000000 -0.300378 -0.953820
vn 0.157223 -0.844523 -0.511920
vn 0.000000 -0.996683 -0.081377
vn 0.000000 -0.947204 -0.320631
vn 0.074408 -0.963122 -0.258570
vn 0.025219 -0.996080 -0.084783
vn 0.000000 -0.947204 -0.320631
vn 0.000000 -0.792921 -0.609324
vn 0.157223 -0.844523 -0.511920
vn 0.074408 -0.963122 -0.258570
vn 0.807904 -0.585396 -0.067846
vn 0.601568 -0.797257 -0.049969
vn 0.467167 -0.852332 -0.235130
vn 0.806019 -0.584764 -0.091565
vn 0.601568 -0.797257 -0.049969
vn 0.316191 -0.948354 -0.025469
vn 0.234070 -0.965656 -0.112785
vn 0.467167 -0.852332 -0.235130
vn 0.316191 -0.948354 -0.025469
vn 0.080281 -0.996753 -0.006219
vn 0.059252 -0.997900 -0.026157
vn 0.234070 -0.965656 -0.112785
vn 0.000000 -1.000000 0.000000
vn -0.059252 -0.997900 -0.026157
vn -0.025219 -0.996080 -0.084783
vn 0.000000 -0.996683 -0.081377
vn 0.059252 -0.997900 -0.026157
vn 0.000000 -1.000000 0.000000
vn 0.000000 -0.996683 -0.081377
vn 0.025219 -0.996080 -0.084783
s off
g light
usemtl pasted__KB3D_CTS_Lamp_G_MainSG
f 6/1/1 5/2/2 8/3/3 7/4/4
f 5/2/5 4/5/6 9/6/7 8/3/8
f 4/5/9 3/7/10 10/8/11 9/6/12
f 26/9/13 25/10/14 28/11/15 27/12/16
f 25/10/17 24/13/18 29/14/19 28/11/20
f 24/13/21 23/15/22 30/16/23 29/14/24
f 42/17/25 41/18/26 44/19/27 43/20/28
f 41/18/29 40/21/30 45/22/31 44/19/32
f 40/21/33 39/23/34 46/24/35 45/22/36
f 11/25/37 1/26/38 6/1/39 7/4/40
f 19/27/41 1/26/42 11/25/43 15/28/44
f 31/29/45 1/26/46 26/9/47 27/12/48
f 6/1/49 1/26/50 31/29/51 35/30/52
f 26/9/53 1/26/54 42/17/55 43/20/56
f 1/26/57 2/31/58 50/32/59 42/17/60
f 19/27/61 51/33/62 2/31/63 1/26/64
f 51/33/65 74/34/66 93/35/67 2/31/68
f 2/31/69 93/35/70 82/36/71 50/32/72
f 59/37/73 60/38/74 10/8/75 3/7/76
f 60/38/77 61/39/78 14/40/79 10/8/80
f 61/39/81 62/41/82 18/42/83 14/40/84
f 62/41/85 63/43/86 22/44/87 18/42/88
f 64/45/89 65/46/90 30/16/91 23/15/92
f 65/46/93 66/47/94 34/48/95 30/16/96
f 66/47/97 67/49/98 38/50/99 34/48/100
f 67/49/101 59/37/102 3/7/103 38/50/104
f 68/51/105 69/52/106 46/24/107 39/23/108
f 69/52/109 64/45/110 23/15/111 46/24/112
f 70/53/113 68/51/114 39/23/115 47/54/116
f 63/43/117 71/55/118 54/56/119 22/44/120
f 9/6/121 10/8/122 14/40/123 13/57/124
f 7/4/125 8/3/126 12/58/127 11/25/128
f 8/3/129 9/6/130 13/57/131 12/58/132
f 13/57/133 14/40/134 18/42/135 17/59/136
f 11/25/137 12/58/138 16/60/139 15/28/140
f 12/58/141 13/57/142 17/59/143 16/60/144
f 17/59/145 18/42/146 22/44/147 21/61/148
f 15/28/149 16/60/150 20/62/151 19/27/152
f 16/60/153 17/59/154 21/61/155 20/62/156
f 21/61/157 22/44/158 54/56/159 53/63/160
f 19/27/161 20/62/162 52/64/163 51/33/164
f 20/62/165 21/61/166 53/63/167 52/64/168
f 29/14/169 30/16/170 34/48/171 33/65/172
f 27/12/173 28/11/174 32/66/175 31/29/176
f 28/11/177 29/14/178 33/65/179 32/66/180
f 33/65/181 34/48/182 38/50/183 37/67/184
f 31/29/185 32/66/186 36/68/187 35/30/188
f 32/66/189 33/65/190 37/67/191 36/68/192
f 3/7/193 4/5/194 37/67/195 38/50/196
f 4/5/197 5/2/198 36/68/199 37/67/200
f 5/2/201 6/1/202 35/30/203 36/68/204
f 41/18/205 42/17/206 50/32/207 49/69/208
f 39/23/209 40/21/210 48/70/211 47/54/212
f 40/21/213 41/18/214 49/69/215 48/70/216
f 23/15/217 24/13/218 45/22/219 46/24/220
f 24/13/221 25/10/222 44/19/223 45/22/224
f 25/10/225 26/9/226 43/20/227 44/19/228
f 73/71/229 74/34/230 75/72/231 76/73/232
f 76/73/233 75/72/234 77/74/235 78/75/236
f 78/75/237 77/74/238 80/76/239 79/77/240
f 79/77/241 80/76/242 90/78/243 89/79/244
f 82/36/245 81/80/246 83/81/247 84/82/248
f 84/82/249 83/81/250 85/83/251 86/84/252
f 86/84/253 85/83/254 88/85/255 87/86/256
f 87/86/257 88/85/258 92/87/259 91/88/260
f 71/55/261 90/78/262 80/76/263 54/56/264
f 79/77/265 89/79/266 72/89/267 58/90/268
f 72/89/269 92/87/270 88/85/271 58/90/272
f 87/86/273 91/88/274 70/53/275 47/54/276
f 53/63/277 54/56/278 80/76/279 77/74/280
f 51/33/281 52/64/282 75/72/283 74/34/284
f 52/64/285 53/63/286 77/74/287 75/72/288
f 78/75/289 79/77/290 58/90/291 57/91/292
f 73/71/293 76/73/294 56/92/295 55/93/296
f 76/73/297 78/75/298 57/91/299 56/92/300
f 57/91/301 58/90/302 88/85/303 85/83/304
f 55/93/305 56/92/306 83/81/307 81/80/308
f 56/92/309 57/91/310 85/83/311 83/81/312
f 47/54/313 48/70/314 86/84/315 87/86/316
f 48/70/317 49/69/318 84/82/319 86/84/320
f 49/69/321 50/32/322 82/36/323 84/82/324
f 93/35/325 74/34/326 73/71/327 55/93/328
f 82/36/329 93/35/330 55/93/331 81/80/332
