# This file uses centimeters as units for non-parametric coordinates.

mtllib Excavator_glass.mtl
g default
v 1.544113 -0.588357 12.065685
v 1.604253 1.139737 11.992483
v 1.561047 5.850195 11.827852
v 1.474297 6.133492 11.764795
v 1.172224 6.248404 11.764692
v -4.512279 6.278189 11.767167
v -5.219424 6.110102 11.779123
v -5.835657 5.780747 11.814075
v -6.254072 5.216465 11.864593
v -6.590113 4.235095 11.899096
v -7.452226 0.789263 11.986182
v -7.682373 -0.654031 12.054711
v -2.263018 6.299532 11.763777
v -2.026287 6.298790 11.763638
v -2.026128 -0.616922 12.060909
v -2.262871 -0.618642 12.060625
v -2.026276 5.878426 11.781707
v -2.026285 6.194537 11.768118
v -2.026168 1.192275 11.983144
v -2.263014 6.124461 11.771290
v -2.263006 5.813250 11.784642
v -2.262994 5.192196 11.811291
v -2.262973 4.185488 11.854486
v -2.262900 0.757330 12.001585
v 7.109617 1.185277 12.037368
v 6.854810 4.612063 11.933395
v 6.671359 5.166462 11.894700
v 6.443647 5.632311 11.874942
v 6.149260 5.999735 11.862285
v 5.732194 6.169627 11.856435
v 2.521476 6.198428 11.855399
v 2.510154 4.967604 11.927609
v 2.472058 1.280243 12.011637
v 2.422858 -0.185684 12.063834
v 2.460559 -1.392869 12.077377
v 2.442353 -2.945754 12.170404
v 4.602356 -1.938356 12.135826
v 6.240497 -0.939825 12.105784
v 6.919093 -0.119413 12.079804
v 2.519937 6.031292 11.865206
v 2.516953 5.706999 11.884232
v 2.513033 5.280493 11.909254
v 2.509431 4.809420 11.932205
v 7.054199 2.898671 11.950658
v 2.490745 3.044831 11.971921
v -8.990250 -6.924211 11.068977
v -8.968117 -6.726411 11.455750
v -9.003877 -6.394118 11.648863
v -8.995681 -5.540440 11.648864
v -8.864008 -3.252513 11.648844
v -8.627635 -0.939008 11.594175
v -8.224099 1.473010 11.540968
v -7.629135 4.063941 11.380202
v -6.986104 5.970347 11.300109
v -6.722462 6.447279 11.251549
v -6.458821 6.924212 10.952744
v -6.458821 6.924212 3.783883
v -6.722461 6.447279 3.485076
v -6.986104 5.970347 3.436519
v -7.629135 4.063941 3.356423
v -8.224099 1.473010 3.195658
v -8.627636 -0.939008 3.142449
v -8.864010 -3.252514 3.087783
v -8.995681 -5.540441 3.087763
v -9.003875 -6.394119 3.087762
v -8.968115 -6.726412 3.280877
v -8.990251 -6.924212 3.667650
v -6.458820 6.924212 7.368312
v -6.722461 6.447279 7.368312
v -6.986104 5.970347 7.368313
v -7.629136 4.063941 7.368313
v -8.224099 1.473010 7.368313
v -8.627636 -0.939008 7.368313
v -8.864010 -3.252513 7.368313
v -8.995682 -5.540441 7.368313
v -9.003876 -6.394119 7.368312
v -8.968117 -6.726411 7.368313
v -8.990250 -6.924211 7.368313
v -8.839211 -3.009797 3.093517
v -8.839211 -3.009796 7.368312
v -8.839210 -3.009796 11.643108
v 7.109617 1.185277 2.695068
v 6.854810 4.612063 2.799040
v 6.671358 5.166462 2.837736
v 6.443647 5.632311 2.857496
v 6.149261 5.999735 2.870150
v 5.732194 6.169627 2.875999
v 2.521476 6.198428 2.877035
v 2.510154 4.967604 2.804827
v 2.472057 1.280243 2.720798
v 2.422857 -0.185684 2.668602
v 2.460560 -1.392869 2.655058
v 2.442352 -2.945754 2.562031
v 4.602355 -1.938356 2.596611
v 6.240497 -0.939825 2.626652
v 6.919094 -0.119413 2.652632
v 2.519937 6.031292 2.867229
v 2.516954 5.706999 2.848204
v 2.513033 5.280493 2.823183
v 2.509431 4.809420 2.800230
v 7.054199 2.898671 2.781776
v 2.490745 3.044831 2.760515
v 1.544115 -0.588357 2.666750
v 1.604253 1.139737 2.739952
v 1.561046 5.850195 2.904585
v 1.474298 6.133492 2.967642
v 1.172224 6.248404 2.967745
v -4.512279 6.278189 2.965270
v -5.219426 6.110102 2.953313
v -5.835656 5.780747 2.918362
v -6.254071 5.216465 2.867842
v -6.590113 4.235095 2.833340
v -7.452225 0.789263 2.746253
v -7.682373 -0.654031 2.677725
v -2.263018 6.299532 2.968658
v -2.026288 6.298790 2.968798
v -2.026128 -0.616922 2.671525
v -2.262872 -0.618642 2.671812
v -2.026276 5.878426 2.950727
v -2.026285 6.194537 2.964316
v -2.026169 1.192275 2.749292
v -2.263014 6.124461 2.961147
v -2.263007 5.813250 2.947793
v -2.262994 5.192196 2.921144
v -2.262972 4.185488 2.877949
v -2.262901 0.757330 2.730851
v 8.528425 3.988402 10.868334
v 9.003877 1.038954 10.996372
v 8.982749 1.039092 7.368312
v 9.003871 1.038956 3.740253
v 8.528431 3.988404 3.868290
v 7.654069 6.645405 4.028826
v 7.656160 6.642260 7.368312
v 7.654066 6.645403 10.707796
v 8.528425 3.988402 7.430375
vt 0.000000 1.000000
vt 0.000000 1.000000
vt 0.723060 1.000000
vt 0.000000 1.000000
vt 0.087227 1.000000
vt 0.003113 1.000000
vt 0.000000 1.000000
vt 0.000000 1.000000
vt -0.000000 1.000000
vt 0.000000 1.000000
vt 0.000000 1.000000
vt 0.000000 1.000000
vt 0.000000 1.000000
vt 0.283765 1.000000
vt 0.000000 1.000000
vt 0.000000 1.000000
vt 0.002923 1.000000
vt 0.003066 1.000000
vt 0.000814 1.000000
vt -0.000000 1.000000
vt -0.000000 1.000000
vt -0.000000 1.000000
vt -0.000000 1.000000
vt -0.000000 1.000000
vt 0.000000 1.000000
vt 0.000000 1.000000
vt 0.345507 1.000000
vt 0.000000 1.000000
vt 0.000000 1.000000
vt 0.000000 1.000000
vt 0.000000 1.000000
vt 0.000000 1.000000
vt 0.000000 1.000000
vt 0.000000 1.000000
vt 0.531368 1.000000
vt 0.000000 1.000000
vt 0.000000 1.000000
vt 0.500000 1.000000
vt 0.592231 1.000000
vt 0.000000 1.000000
vt 0.672278 1.000000
vt 0.000000 1.000000
vt 0.691015 1.000000
vt 0.000000 1.000000
vt 0.731001 1.000000
vt 0.389571 0.510778
vt 0.389572 0.500000
vt 0.389572 0.503417
vt 0.389571 0.510778
vt 0.389566 0.534390
vt 0.389559 0.559052
vt 0.389559 0.559052
vt 0.389566 0.534390
vt 0.389554 0.582226
vt 0.389554 0.582226
vt 0.389547 0.613417
vt 0.389547 0.613417
vt 0.389546 0.617073
vt 0.389544 0.625000
vt 0.389544 0.625000
vt 0.389546 0.617073
vt 0.389546 0.666471
vt 0.389546 0.666471
vt 0.389570 0.514722
vt 0.389570 0.514722
vt 0.391111 0.707942
vt 0.391111 0.707942
vt 0.389549 0.707942
vt 0.389549 0.707942
vt 0.389572 0.506834
vt 0.389571 0.510778
vt 0.389570 0.514722
vt 0.389566 0.534390
vt 0.389559 0.559052
vt 0.389554 0.582226
vt 0.389547 0.613417
vt 0.389546 0.617073
vt 0.389544 0.625000
vt 0.389546 0.666471
vt 0.389549 0.707942
vt 0.391111 0.707942
vt 0.000000 1.000000
vt 0.000000 1.000000
vt 0.345507 1.000000
vt 0.000000 1.000000
vt 0.000000 1.000000
vt 0.000000 1.000000
vt 0.000000 1.000000
vt 0.000000 1.000000
vt 0.000000 1.000000
vt 0.000000 1.000000
vt 0.531368 1.000000
vt 0.500000 1.000000
vt 0.000000 1.000000
vt 0.000000 1.000000
vt 0.592231 1.000000
vt 0.000000 1.000000
vt 0.672278 1.000000
vt 0.000000 1.000000
vt 0.691015 1.000000
vt 0.731001 1.000000
vt 0.000000 1.000000
vt 0.000000 1.000000
vt 0.000000 1.000000
vt 0.000814 1.000000
vt 0.000000 1.000000
vt -0.000000 1.000000
vt 0.000000 1.000000
vt 0.000000 1.000000
vt -0.000000 1.000000
vt 0.002923 1.000000
vt 0.003066 1.000000
vt 0.000000 1.000000
vt 0.723060 1.000000
vt 0.003113 1.000000
vt 0.087227 1.000000
vt -0.000000 1.000000
vt 0.000000 1.000000
vt -0.000000 1.000000
vt 0.000000 1.000000
vt -0.000000 1.000000
vt 0.283765 1.000000
vt -0.000000 1.000000
vt 0.000000 1.000000
vt 0.000000 1.000000
vt 0.000000 1.000000
vt 0.000000 1.000000
vt 0.000000 1.000000
vt 0.000000 1.000000
vt 0.000000 1.000000
vt 0.000000 1.000000
vt 0.000000 1.000000
vt 0.000000 1.000000
vt 0.000000 1.000000
vt 0.000000 1.000000
vn -0.001816 0.042671 0.999088
vn -0.001816 0.042671 0.999088
vn -0.001816 0.042671 0.999088
vn -0.001816 0.042671 0.999088
vn 0.001790 0.052967 0.998595
vn 0.001790 0.052967 0.998595
vn 0.001790 0.052967 0.998595
vn 0.001790 0.052967 0.998595
vn -0.004404 0.126210 0.991994
vn -0.004404 0.126210 0.991994
vn -0.004404 0.126210 0.991994
vn -0.004404 0.126210 0.991994
vn 0.000703 0.021876 0.999761
vn 0.000703 0.021876 0.999761
vn 0.000703 0.021876 0.999760
vn 0.000703 0.021876 0.999760
vn -0.007246 0.038894 0.999217
vn -0.007246 0.038894 0.999217
vn -0.007246 0.038894 0.999217
vn -0.007246 0.038894 0.999217
vn 0.005189 0.070228 0.997517
vn 0.005189 0.070228 0.997517
vn 0.005189 0.070228 0.997517
vn 0.005189 0.070228 0.997518
vn 0.010851 0.061145 0.998070
vn 0.010851 0.061145 0.998070
vn 0.010851 0.061145 0.998070
vn 0.010851 0.061145 0.998070
vn 0.012090 0.037009 0.999242
vn 0.012090 0.037009 0.999242
vn 0.012090 0.037009 0.999242
vn 0.012090 0.037009 0.999242
vn 0.003355 0.033628 0.999429
vn 0.003355 0.033628 0.999429
vn 0.003355 0.033628 0.999429
vn 0.003355 0.033628 0.999429
vn -0.002022 0.045367 0.998968
vn -0.002022 0.045367 0.998968
vn -0.002022 0.045367 0.998968
vn -0.002022 0.045367 0.998968
vn 0.000467 0.036331 0.999340
vn 0.001574 0.027288 0.999626
vn 0.001674 0.026469 0.999648
vn 0.000467 0.036331 0.999340
vn -0.012854 0.056499 0.998320
vn -0.012854 0.056499 0.998320
vn -0.012854 0.056499 0.998320
vn -0.012854 0.056499 0.998320
vn -0.006717 0.021611 0.999744
vn -0.006717 0.021611 0.999744
vn -0.006717 0.021611 0.999744
vn -0.006717 0.021611 0.999744
vn -0.004455 0.034521 0.999394
vn -0.004455 0.034521 0.999394
vn -0.004455 0.034521 0.999394
vn -0.004455 0.034521 0.999394
vn 0.000692 0.047257 0.998883
vn 0.000692 0.047257 0.998883
vn 0.000692 0.047257 0.998883
vn 0.000692 0.047257 0.998883
vn 0.002271 0.046710 0.998906
vn 0.002271 0.046710 0.998906
vn 0.002271 0.046710 0.998906
vn 0.002271 0.046710 0.998906
vn 0.004139 0.051154 0.998682
vn 0.004139 0.051154 0.998682
vn 0.004139 0.051154 0.998682
vn 0.004139 0.051154 0.998682
vn 0.004128 0.060665 0.998150
vn 0.004128 0.060665 0.998150
vn 0.004128 0.060665 0.998150
vn 0.004128 0.060665 0.998150
vn 0.004128 0.060665 0.998150
vn 0.002890 0.016530 0.999859
vn 0.002890 0.016530 0.999859
vn -0.875185 0.483789 -0.000000
vn -0.875185 0.483788 -0.000000
vn -0.875185 0.483788 -0.000000
vn -0.875185 0.483789 -0.000000
vn -0.964331 0.264699 -0.000000
vn -0.980735 0.195343 0.000000
vn -0.980890 0.194565 0.000000
vn -0.964736 0.263219 0.000000
vn -0.990743 0.135752 0.000000
vn -0.990805 0.135297 0.000000
vn -0.994821 0.101642 0.000000
vn -0.994821 0.101642 0.000000
vn -0.998094 0.061710 0.000000
vn -0.999010 0.044476 0.000000
vn -0.999010 0.044476 0.000000
vn -0.998098 0.061652 0.000000
vn -0.999742 -0.022700 -0.000000
vn -0.999900 -0.014109 -0.000000
vn -0.934827 0.355105 -0.000000
vn -0.935685 0.352837 0.000000
vn -0.993798 0.111204 -0.000000
vn -0.993798 0.111199 0.000000
vn -0.996565 -0.082816 -0.000000
vn -0.999569 -0.029345 -0.000000
vn -0.875186 0.483787 0.000000
vn -0.875184 0.483790 0.000000
vn -0.935685 0.352837 -0.000000
vn -0.964736 0.263218 -0.000000
vn -0.980890 0.194565 -0.000000
vn -0.990805 0.135298 0.000000
vn -0.994821 0.101642 -0.000000
vn -0.998098 0.061652 -0.000000
vn -0.999011 0.044476 -0.000000
vn -0.999901 -0.014109 -0.000000
vn -0.996565 -0.082819 -0.000000
vn -0.993797 0.111209 -0.000000
vn 0.000467 0.036331 -0.999340
vn 0.000467 0.036331 -0.999340
vn 0.001674 0.026469 -0.999648
vn 0.001574 0.027288 -0.999626
vn -0.012853 0.056498 -0.998320
vn -0.012853 0.056498 -0.998320
vn -0.012853 0.056498 -0.998320
vn -0.012853 0.056498 -0.998320
vn -0.006717 0.021611 -0.999744
vn -0.006717 0.021611 -0.999744
vn -0.006717 0.021611 -0.999744
vn -0.006717 0.021611 -0.999744
vn -0.004454 0.034521 -0.999394
vn -0.004454 0.034521 -0.999394
vn -0.004454 0.034521 -0.999394
vn -0.004454 0.034521 -0.999394
vn 0.000692 0.047254 -0.998883
vn 0.000692 0.047254 -0.998883
vn 0.000692 0.047254 -0.998883
vn 0.000692 0.047254 -0.998883
vn 0.002271 0.046704 -0.998906
vn 0.002271 0.046704 -0.998906
vn 0.002271 0.046704 -0.998906
vn 0.002271 0.046704 -0.998906
vn 0.004140 0.051155 -0.998682
vn 0.004140 0.051155 -0.998682
vn 0.004140 0.051155 -0.998682
vn 0.004140 0.051155 -0.998682
vn 0.004128 0.060668 -0.998150
vn 0.004128 0.060668 -0.998150
vn 0.004128 0.060668 -0.998149
vn 0.004128 0.060668 -0.998150
vn 0.004128 0.060668 -0.998150
vn 0.002890 0.016530 -0.999859
vn 0.002890 0.016530 -0.999859
vn -0.001816 0.042671 -0.999088
vn -0.001816 0.042671 -0.999088
vn -0.001816 0.042671 -0.999088
vn -0.001816 0.042671 -0.999088
vn 0.001790 0.052965 -0.998595
vn 0.001790 0.052965 -0.998595
vn 0.001790 0.052965 -0.998595
vn 0.001790 0.052965 -0.998595
vn -0.004403 0.126209 -0.991994
vn -0.004403 0.126209 -0.991994
vn -0.004403 0.126209 -0.991994
vn -0.004403 0.126209 -0.991994
vn 0.000703 0.021881 -0.999760
vn 0.000703 0.021881 -0.999760
vn 0.000703 0.021881 -0.999760
vn 0.000703 0.021881 -0.999760
vn -0.007246 0.038894 -0.999217
vn -0.007246 0.038894 -0.999217
vn -0.007246 0.038894 -0.999217
vn -0.007246 0.038894 -0.999217
vn 0.005189 0.070231 -0.997517
vn 0.005189 0.070231 -0.997517
vn 0.005189 0.070231 -0.997517
vn 0.005189 0.070231 -0.997517
vn 0.010851 0.061147 -0.998070
vn 0.010851 0.061147 -0.998070
vn 0.010851 0.061147 -0.998070
vn 0.010851 0.061147 -0.998070
vn 0.012091 0.037009 -0.999242
vn 0.012091 0.037009 -0.999242
vn 0.012091 0.037009 -0.999242
vn 0.012091 0.037009 -0.999242
vn 0.003355 0.033628 -0.999429
vn 0.003355 0.033628 -0.999429
vn 0.003355 0.033628 -0.999429
vn 0.003355 0.033628 -0.999429
vn -0.002022 0.045367 -0.998968
vn -0.002022 0.045367 -0.998968
vn -0.002022 0.045367 -0.998968
vn -0.002022 0.045367 -0.998968
vn 0.949944 0.312420 -0.000001
vn 0.973054 0.230579 -0.000019
vn 0.973645 0.228066 0.001512
vn 0.949944 0.312419 -0.000144
vn 0.987814 0.155637 0.000039
vn 0.987815 0.155607 0.002900
vn 0.949944 0.312421 0.000148
vn 0.973643 0.228071 -0.001539
vn 0.987805 0.155667 -0.002951
s off
g glass
usemtl blinn1SG
f 1/1/1 2/2/2 19/19/3 15/7/4
f 20/20/5 13/9/6 6/10/7 7/11/8
f 17/17/9 3/3/10 4/4/11 18/18/12
f 18/18/13 4/4/14 5/5/15 14/6/16
f 19/19/17 2/2/18 3/3/19 17/17/20
f 21/21/21 20/20/22 7/11/23 8/12/24
f 22/22/25 21/21/26 8/12/27 9/13/28
f 23/23/29 22/22/30 9/13/31 10/14/32
f 24/24/33 23/23/34 10/14/35 11/15/36
f 16/8/37 24/24/38 11/15/39 12/16/40
s 1
f 25/25/41 44/26/42 45/27/43 33/28/44
s off
f 38/29/45 35/30/46 36/31/47 37/32/48
f 39/33/49 34/34/50 35/30/51 38/29/52
f 25/25/53 33/28/54 34/34/55 39/33/56
f 40/35/57 29/36/58 30/37/59 31/38/60
f 41/39/61 28/40/62 29/36/63 40/35/64
f 42/41/65 27/42/66 28/40/67 41/39/68
f 43/43/69 26/44/70 27/42/71 42/41/72 32/45/73
s 1
f 44/26/42 26/44/74 43/43/75 45/27/43
s 2
f 55/46/76 56/47/77 68/48/78 69/49/79
f 71/50/80 72/51/81 52/52/82 53/53/83
f 72/51/81 73/54/84 51/55/85 52/52/82
f 73/54/84 80/56/86 81/57/87 51/55/85
f 74/58/88 75/59/89 49/60/90 50/61/91
f 75/59/89 76/62/92 48/63/93 49/60/90
f 70/64/94 71/50/80 53/53/83 54/65/95
f 55/46/76 69/49/79 70/64/94 54/65/95
f 78/66/96 46/67/97 47/68/98 77/69/99
f 76/62/92 77/69/99 47/68/98 48/63/93
f 69/49/79 68/48/78 57/70/100 58/71/101
f 70/64/94 69/49/79 58/71/101 59/72/102
f 59/72/102 60/73/103 71/50/80 70/64/94
f 60/73/103 61/74/104 72/51/81 71/50/80
f 61/74/104 62/75/105 73/54/84 72/51/81
f 62/75/105 79/76/106 80/56/86 73/54/84
f 63/77/107 64/78/108 75/59/89 74/58/88
f 64/78/108 65/79/109 76/62/92 75/59/89
f 65/79/109 66/80/110 77/69/99 76/62/92
f 67/81/111 78/66/96 77/69/99 66/80/110
f 79/76/106 63/77/107 74/58/88 80/56/86
f 81/57/87 80/56/86 74/58/88 50/61/91
s 5
f 82/82/112 90/83/113 102/84/114 101/85/115
s off
f 95/86/116 94/87/117 93/88/118 92/89/119
f 96/90/120 95/86/121 92/89/122 91/91/123
f 82/82/124 96/90/125 91/91/126 90/83/127
f 97/92/128 88/93/129 87/94/130 86/95/131
f 98/96/132 97/92/133 86/95/134 85/97/135
f 99/98/136 98/96/137 85/97/138 84/99/139
f 100/100/140 89/101/141 99/98/142 84/99/143 83/102/144
s 5
f 101/85/115 102/84/114 100/100/145 83/102/146
s off
f 103/103/147 117/104/148 121/105/149 104/106/150
f 122/107/151 109/108/152 108/109/153 115/110/154
f 119/111/155 120/112/156 106/113/157 105/114/158
f 120/112/159 116/115/160 107/116/161 106/113/162
f 121/105/163 119/111/164 105/114/165 104/106/166
f 123/117/167 110/118/168 109/108/169 122/107/170
f 124/119/171 111/120/172 110/118/173 123/117/174
f 125/121/175 112/122/176 111/120/177 124/119/178
f 126/123/179 113/124/180 112/122/181 125/121/182
f 118/125/183 114/126/184 113/124/185 126/123/186
s 6
usemtl initialShadingGroup
f 133/127/187 135/128/188 131/129/189 132/130/190
f 131/129/189 135/128/188 129/131/191 130/132/192
f 134/133/193 127/134/194 135/128/188 133/127/187
f 129/131/191 135/128/188 127/134/194 128/135/195
